<svg id="Layer_1" data-name="Layer 1" xmlns="http://www.w3.org/2000/svg" xmlns:xlink="http://www.w3.org/1999/xlink" viewBox="0 0 64.71 37.82"><defs><style>.cls-1,.cls-2{fill:none;}.cls-1{clip-rule:evenodd;}.cls-3{clip-path:url(#clip-path);}.cls-4{clip-path:url(#clip-path-2);}.cls-5{isolation:isolate;}.cls-6{clip-path:url(#clip-path-3);}.cls-7{clip-path:url(#clip-path-4);}.cls-8{clip-path:url(#clip-path-5);}.cls-9{fill:#d01d65;}.cls-10{clip-path:url(#clip-path-6);}.cls-11{clip-path:url(#clip-path-8);}.cls-12{clip-path:url(#clip-path-10);}.cls-13{clip-path:url(#clip-path-12);}.cls-14{clip-path:url(#clip-path-14);}.cls-15{fill:#d01f65;}</style><clipPath id="clip-path" transform="translate(4.86 4.91)"><polygon class="cls-1" points="27.5 27.91 0.14 27.91 0.14 0.09 54.86 0.09 54.86 27.91 27.5 27.91"/></clipPath><clipPath id="clip-path-2" transform="translate(4.86 4.91)"><rect class="cls-2" x="-42.86" y="-15.91" width="1440" height="1024"/></clipPath><clipPath id="clip-path-3" transform="translate(4.86 4.91)"><rect class="cls-2" x="0.14" y="-0.91" width="55" height="29"/></clipPath><clipPath id="clip-path-4" transform="translate(4.86 4.91)"><path class="cls-1" d="M10.43,17a2.29,2.29,0,0,0,.79-1.76V5.35H.14V17.71H8.36A3,3,0,0,0,10.43,17ZM3.19,14.73h5V8.33h-5Z"/></clipPath><clipPath id="clip-path-5" transform="translate(4.86 4.91)"><rect class="cls-2" x="0.14" y="0.09" width="55" height="28"/></clipPath><clipPath id="clip-path-6" transform="translate(4.86 4.91)"><path class="cls-1" d="M5.86,19.13h-3v8.78H14a2.9,2.9,0,0,0,2-.7,2.23,2.23,0,0,0,.77-1.72v-.56H5.86Z"/></clipPath><clipPath id="clip-path-8" transform="translate(4.86 4.91)"><rect class="cls-2" x="13.68" y="5.35" width="3.1" height="18.52"/></clipPath><clipPath id="clip-path-10" transform="translate(4.86 4.91)"><path class="cls-1" d="M34.76,5.35V19.13H24.16v8.78h10.9a2.9,2.9,0,0,0,2-.7,2.24,2.24,0,0,0,.77-1.72V5.35ZM27.2,24.93h7.61V22.11H27.2Z"/></clipPath><clipPath id="clip-path-12" transform="translate(4.86 4.91)"><polygon class="cls-1" points="31.46 18.13 33.65 15.56 27.21 5.38 20.5 15.56 22.72 18.13 27.21 11.3 31.46 18.13"/></clipPath><clipPath id="clip-path-14" transform="translate(4.86 4.91)"><path class="cls-1" d="M54.86,6.55a6.45,6.45,0,1,0-6.68,6.38l-1.23,1.79,2.83,0-1.35-1.8a6.43,6.43,0,0,0,6.43-6.38m-2.62-.63-2,1.68.57,2.51a.2.2,0,0,1-.3.22L48.33,9,46.1,10.31a.2.2,0,0,1-.3-.22l.6-2.51-1.95-1.7a.2.2,0,0,1,.12-.36l2.58-.2,1-2.37a.2.2,0,0,1,.37,0l1,2.38,2.58.23a.2.2,0,0,1,.11.36"/></clipPath></defs><title>logo</title><g class="cls-3"><g class="cls-4"><g class="cls-5"><g class="cls-6"><g class="cls-7"><g class="cls-8"><rect class="cls-9" y="5.26" width="21.08" height="22.36"/></g></g><g class="cls-10"><g class="cls-8"><rect class="cls-9" x="2.67" y="19.04" width="23.97" height="18.78"/></g></g><g class="cls-11"><g class="cls-8"><rect class="cls-9" x="13.54" y="5.26" width="13.1" height="28.52"/></g></g><g class="cls-12"><g class="cls-8"><rect class="cls-9" x="24.01" y="5.26" width="23.7" height="32.56"/></g></g><g class="cls-13"><g class="cls-8"><rect class="cls-9" x="20.35" y="5.29" width="23.15" height="22.75"/></g></g><g class="cls-14"><g class="cls-8"><rect class="cls-15" x="41.82" width="22.9" height="24.64"/></g></g></g></g></g></g></svg>